<?xml version="1.0" encoding="UTF-8"?> <svg xmlns="http://www.w3.org/2000/svg" width="823" height="211" viewBox="0 0 823 211" fill="none"> <path d="M85.4 146.9C93.8 140.9 98 132.8 98 122.8C98 114 94.7 106.6 88.2 100.8C81.6 94.9999 72.9 91.4999 62.2 90.4999L58.4 90.1999L61.9 88.6999C70.1 85.1999 76 81.3999 79.3 77.4999C82.5 73.5999 84.2 68.9999 84.2 63.7999C84.2 57.1999 81.6 51.3999 76.3 46.4999C70.1 40.3999 58.2 37.3999 41.1 37.3999C40.2 37.3999 36.3 37.4999 28.9 37.5999C21.8 37.6999 16.5 37.7999 13.4 37.7999C8.40001 37.7999 3.9 37.6999 0 37.4999V38.5999C4.7 39.1999 7.9 40.4999 10 42.4999C12.1 44.6999 13.2 47.6999 13.2 51.6999V144.5C13.2 148.2 12.1 150.8 10 152.3C8.1 153.7 4.8 154.6 0 155V156.1H50.1C65.1 156 77 152.9 85.4 146.9ZM25.4 39.6999H26.3C29.6 39.5999 34.7 39.4999 41.3 39.4999C60.9 39.4999 70.8 48.1999 70.8 65.4999C70.8 74.2999 67.6 80.7999 61.2 84.9999C55 89.0999 43.3 92.2999 26.5 94.3999L25.4 94.4999V39.6999ZM38.2 154C33.3 154 30 153.4 28.2 152.2C26.3 150.9 25.4 148.3 25.4 144.7V96.6999L53.8 92.0999C62.8 92.0999 70.2 95.3999 75.9 101.8C81.7 108.1 84.6 116 84.6 125.3C84.6 134 81.6 141.1 75.7 146.2C69.9 151.4 60.8 154 48.6 154H38.2Z" fill="#F2F0E9"></path> <path d="M143.9 155.9V154.8C139 154.1 135.7 153.2 133.6 151.9C131.4 150.4 130.3 147.8 130.3 144.3V48.9C130.3 45.4 131.4 42.8 133.6 41.4C135.6 40 139 39.1 143.9 38.4V37.3C130.9 37.9 117.7 37.9 104.7 37.3V38.4C109.6 39.1 113 40 115 41.4C117.2 42.8 118.4 45.3 118.4 48.9V144.3C118.4 147.8 117.3 150.4 115 151.9C112.9 153.2 109.6 154.1 104.7 154.8V155.9C111.2 155.6 117.8 155.5 124.3 155.5C130.9 155.5 137.4 155.6 143.9 155.9Z" fill="#F2F0E9"></path> <path d="M261.9 100.9C251.4 101.6 238 101.7 222.2 101.2V103.1L223.9 103.4C230.3 104.1 234.1 105.3 235.7 107.2C237.3 109.2 238.1 113.4 238.1 120C238.1 133.3 236.4 142.3 232.8 147.5C229.2 152.7 223.1 155.3 214.7 155.3C200.2 155.3 188.5 149.3 180.2 137.5C171.9 125.8 167.7 110 167.7 90.8C167.7 80.8 168.8 72 170.9 64.6C173 57.1 176.1 51.3 179.9 47.4C187.1 40.2 195.6 36.6 205.3 36.6C222.7 36.6 235.7 47.2 244.1 68.3H246.9C244.4 61.9 241.5 51.6 238.2 37.5C237.9 37.5 237.5 37.5 236.8 37.6C234.6 37.8 234.2 37.8 234.1 37.8C230.4 37.8 225.9 37.2 220.9 36.1C216.2 34.9 211.7 34.3 207.5 34.3C191.6 34.3 178.6 40.3 169 52.2C159.4 64.2 154.5 79.1 154.5 96.4C154.5 113.7 159.6 128.7 169.8 140.5C179.9 152.2 193.6 158.2 210.6 158.2C216.8 158.2 223.6 157.1 230.9 154.9C238.4 152.7 244.1 151.5 248 151.5C250.6 151.5 252.8 151.6 254.4 151.8V149.9C250.6 147.4 248.7 140.3 248.7 128.4V120C248.7 118.7 248.7 117.5 248.8 116.4C248.9 114.8 249.2 112.8 249.7 110.6L249.9 109.8C250 109.5 250 109.3 250.1 109.1C250.2 108.9 250.3 108.7 250.4 108.5C250.5 108.4 250.5 108.2 250.6 108.1C250.7 107.9 250.8 107.7 251 107.5C251.2 107.3 251.4 107.1 251.5 107C251.6 107 251.6 106.9 251.7 106.8L252.1 106.4C253.2 105.2 255 104.4 257.2 104.1L261.7 103.3L261.9 100.9Z" fill="#F2F0E9"></path> <path d="M358 38C358 38 358.1 37.9 358.1 37.6L358.6 34.7C358.6 34.5 358.6 34.4 358.7 34.3C358.6 34.3 358.4 34.3 358.2 34.3H336.7L341.7 0H327L322 34.3H300.7C300.2 34.3 300.2 34.4 300.1 34.7L299.6 37.9C299.7 37.9 299.9 37.9 300.2 37.9H321.3L305.3 145.7C304.8 150.2 305.5 153.5 307.2 155.5C308.6 157.1 310.9 157.9 314 157.9C318.6 157.9 323.6 156.4 328.9 153.4C334.2 150.4 338.7 145.9 342.2 140.2C342.6 139.4 343.1 138.2 342.7 137.5C342.1 137.2 341.8 137.3 341.5 137.7C335.5 143.9 330.7 146.9 327 146.9C323.8 146.9 322.4 145.4 321.8 144.2C321 142.7 320.9 140.5 321.2 137.4L335.9 37.8H357.5C357.9 38 358 38 358 38Z" fill="#F2F0E9"></path> <path d="M457.9 140.3C458.4 139.5 459.1 138.2 458.5 137.7C458.3 137.5 458 137.3 457.2 137.9C451 144.1 446.3 147.1 442.7 147.1C440.7 147.1 439.2 146.4 438.1 145.2C436.7 143.6 436.2 141.1 436.6 137.6L453.9 37.7C445.6 34.1 436.1 32.3 425.8 32.3C412 32.3 399.3 36.9 388 45.9C376.7 54.8 368 66.2 362.1 79.6C356.3 92.9 353.3 106.9 353.3 121C353.3 133.8 356 143.3 361.2 149.3C366.5 155 373.6 158 382.3 158C392.6 158 400.6 154.5 406.1 147.6C412 140.4 417.7 129.6 423.1 115.3L426 116.1L421 145.9C420.6 148.8 421 151.7 422.3 154.5C423.6 156.8 426.3 158 430.5 158C434.7 158 439.5 156.5 444.8 153.5C449.9 150.6 454.4 146.1 457.9 140.3ZM422.5 109.3C418.7 119.8 413.8 129.5 407.8 138.3C401.8 147.2 395.5 151.6 389.3 151.6C383.9 151.6 379.4 148.1 375.8 141.3C372.4 134.7 370.6 126.4 370.6 116.8C370.6 101.4 374.3 84.6 381.6 66.8C385.2 57.8 390.5 50.3 397.5 44.3C404.5 38.2 412.6 35.2 421.5 35.2C429.7 35.2 435 37.7 437.4 42.5L437.6 43L431 78.5C429.4 87.7 426.5 98.1 422.5 109.3Z" fill="#F2F0E9"></path> <path d="M556.9 34.5999C554.9 32.7999 551.7 31.8999 547.6 31.8999C537.9 31.8999 529.1 37.8999 521.3 49.6999C513.1 61.9999 504.5 81.4999 495.6 107.6L492.7 106.8L503.9 43.5999C504.5 39.3999 504 36.3999 502.4 34.4999C501.1 32.8999 498.7 32.0999 495.6 32.0999C490.9 32.0999 485.8 33.8999 480.2 37.2999C474.6 40.7999 469.4 45.8999 464.8 52.3999C464.3 53.1999 464.5 53.4999 464.9 53.8999C465 53.9999 465.4 54.3999 466.6 53.1999C472.1 47.4999 477.3 44.5999 482.2 44.5999C484.4 44.4999 486.1 45.4999 486.9 47.4999C487.6 49.1999 487.8 51.4999 487.3 54.4999L472.8 156.3H488C488.7 147.7 491.5 134.7 496.4 117.5C501.7 99.0999 508.1 81.8999 515.5 66.1999C527.1 41.4999 533.9 41.4999 536.1 41.4999C537 41.4999 537.8 41.8999 542 46.6999C544.4 49.4999 547 50.7999 549.8 50.7999C552.6 50.7999 555.1 49.7999 557 47.6999C558.9 45.4999 559.9 43.2999 559.9 40.7999C559.9 38.2999 558.8 36.2999 556.9 34.5999Z" fill="#F2F0E9"></path> <path d="M669.9 34.4001C668.2 33.0001 666.2 32.4001 663.7 32.4001C656.8 32.4001 651.5 37.3001 647.7 47.4001L646.8 49.8001L645.2 47.8001C636.4 37.4001 625.5 32.1001 612.7 32.1001C598.8 32.1001 586.8 36.8001 577.2 46.0001C567.7 55.0001 562.9 65.8001 562.9 78.1001C562.9 91.7001 570.1 103.5 584.4 113.1L587.9 115.4L583.7 115.8C572.9 116.8 564.8 118.8 559.6 121.6C554.7 124.2 552.3 128.1 552.3 133.5C552.3 140.9 557.3 145.5 567.6 147.5L612.3 155.5C620.1 156.7 625.6 158.3 629 160.5C632.7 162.8 634.6 167.3 634.6 174C634.6 185 629.5 193.5 619.4 199.1C609.8 204.6 598.6 207.5 586.1 207.5C565.4 207.5 554.9 199.8 554.9 184.5C554.9 180 555.9 176.1 557.8 172.8C559.5 169.8 560.4 167.2 560.4 165C560.4 163.6 559.8 162.3 558.6 161.2C557.3 160.1 555.7 159.5 553.6 159.5C550.2 159.5 547.3 161.4 544.7 165.3C542.1 169.3 540.8 174.2 540.8 180C540.8 190.5 544.6 198 552.5 202.9C560.6 207.9 571.2 210.5 584.1 210.5C600.9 210.5 616 206.6 629 198.9C641.9 191.2 648.2 181.2 648.2 168.3C648.2 160.7 645.4 155.1 639.8 151.1C634 147 624.7 144 612.1 142.1L576.9 136.9C571.8 136.1 568.4 135.2 566.5 134.3C564.9 133.5 563 131.9 563 128.4C563 126.1 564.1 122.9 569.3 121.4C573.1 120.1 580.6 118.9 592.4 117.8C602.9 116.9 612.4 114.8 620.4 111.5C628.3 108.2 634.4 104.1 638.6 99.3001C646.5 89.8001 650.6 79.4001 650.6 68.5001C650.6 65.7001 650.3 62.5001 649.8 59.1001C649.2 55.5001 648.9 52.8001 648.9 50.9001C648.9 48.8001 649.8 45.3001 655.9 45.3001C656.6 45.3001 657.9 45.5001 660 45.8001C662.3 46.2001 663.3 46.3001 663.8 46.3001C666.6 46.3001 668.7 45.6001 670.2 44.3001C671.6 43.0001 672.3 41.4001 672.3 39.5001C672.3 37.6001 671.5 35.7001 669.9 34.4001ZM626 98.9001C619.4 108.9 611 114 600.9 114C593.4 114 587.6 111 583.7 105.2C579.9 99.4001 577.9 92.2001 577.9 83.6001C577.9 71.3001 581.1 60.0001 587.3 50.0001C593.7 39.6001 602.1 34.4001 612.5 34.4001C620.4 34.4001 626.4 37.5001 630.3 43.8001C633.9 49.7001 635.8 57.0001 635.8 65.3001C635.8 77.7001 632.5 89.1001 626 98.9001Z" fill="#F2F0E9"></path> <path d="M745.5 123.8H744.5C743.5 123.9 742.7 124.3 742.2 125.2C731.5 141.7 720.1 150.1 708.2 150.1C698.5 150.1 691.4 145.9 686.9 137.6C682.4 129.5 680.9 120.2 682.2 110L682.3 109.1L683.1 108.8C726.8 91 748.9 72.1 748.9 52.7C748.9 46.7 746.9 41.8999 742.9 37.9999C738.9 34.0999 733.5 32.2 726.9 32.2C717.3 32.2 707.6 36.4 698.1 44.8C688.3 53.3 680.3 64.2999 674.2 77.4999C668 90.8999 664.9 104.3 664.9 117.4C664.9 131.3 668.1 141.6 674.5 148.2C680.8 154.8 689.2 158.1 699.4 158.1C718.4 158.1 733.6 147.4 744.6 126.2C745.3 124.9 745.5 124.2 745.5 123.8ZM682.9 103.5C684.6 86.8 689.8 71.0999 698.2 56.8999C707 42.0999 715.4 34.8999 724.2 34.8999C734.1 34.8999 736.2 44.3999 736.2 52.3999C736.2 59.7999 733.2 68.0999 727.3 76.9999C724 81.9999 718.5 87.1 711.1 92C703.8 96.9 695 101.3 684.9 105L682.6 105.8L682.9 103.5Z" fill="#F2F0E9"></path> <path d="M821.4 38C821.4 38 821.5 37.9 821.5 37.6L822 34.7C822 34.5 822 34.4 822.1 34.3C822 34.3 821.8 34.3 821.6 34.3H800.1L805.1 0H790.4L785.4 34.3H764.1C763.6 34.3 763.6 34.4 763.5 34.7L763 37.9C763.1 37.9 763.3 37.9 763.6 37.9H784.8L768.8 145.7C768.3 150.2 769 153.5 770.7 155.5C772.1 157.1 774.4 157.9 777.5 157.9C782.1 157.9 787.1 156.4 792.4 153.4C797.7 150.4 802.2 145.9 805.7 140.2C806.1 139.4 806.6 138.2 806.2 137.5C805.6 137.2 805.4 137.3 805 137.7C799 143.9 794.2 146.9 790.5 146.9C787.3 146.9 785.9 145.4 785.3 144.2C784.5 142.7 784.4 140.5 784.7 137.4L799.4 37.8H821C821.3 38 821.3 38 821.4 38Z" fill="#F2F0E9"></path> <path d="M606.6 57.7C608.7 68.4 608.7 79.4999 606.6 90.1999C604.5 79.4999 604.6 68.4 606.6 57.7Z" fill="#F2F0E9"></path> <path d="M591.1 74.7C601.8 72.6 612.9 72.6 623.6 74.7C612.9 76.8 601.9 76.8 591.1 74.7Z" fill="#F2F0E9"></path> <path d="M606.6 24.6001C607.3 29.9001 607.3 35.3001 606.6 40.6001C605.9 35.3001 605.9 29.9001 606.6 24.6001Z" fill="#F2F0E9"></path> <path d="M606.6 107.6C607.3 112.9 607.3 118.3 606.6 123.6C605.9 118.3 605.9 112.9 606.6 107.6Z" fill="#F2F0E9"></path> <path d="M568.6 73.6C563.3 74.3 557.9 74.3 552.6 73.6C557.9 72.9 563.3 72.9 568.6 73.6Z" fill="#F2F0E9"></path> <path d="M660.6 74.6C655.3 75.3 649.9 75.3 644.6 74.6C649.9 73.9 655.3 73.9 660.6 74.6Z" fill="#F2F0E9"></path> </svg> 