<?xml version="1.0"?>
<svg width="823" height="211" xmlns="http://www.w3.org/2000/svg" xmlns:svg="http://www.w3.org/2000/svg">
 <g class="layer">
  <title>Layer 1</title>
  <path d="m160.4,148.9c8.4,-6 12.6,-14.1 12.6,-24.1c0,-8.8 -3.3,-16.2 -9.8,-22c-6.6,-5.8 -15.3,-9.3 -26,-10.3l-3.8,-0.3l3.5,-1.5c8.2,-3.5 14.1,-7.3 17.4,-11.2c3.2,-3.9 4.9,-8.5 4.9,-13.7c0,-6.6 -2.6,-12.4 -7.9,-17.3c-6.2,-6.1 -18.1,-9.1 -35.2,-9.1c-0.9,0 -4.8,0.1 -12.2,0.2c-7.1,0.1 -12.4,0.2 -15.5,0.2c-5,0 -9.5,-0.1 -13.4,-0.3l0,1.1c4.7,0.6 7.9,1.9 10,3.9c2.1,2.2 3.2,5.2 3.2,9.2l0,92.8c0,3.7 -1.1,6.3 -3.2,7.8c-1.9,1.4 -5.2,2.3 -10,2.7l0,1.1l50.1,0c15,-0.1 26.9,-3.2 35.3,-9.2zm-60,-107.2l0.9,0c3.3,-0.1 8.4,-0.2 15,-0.2c19.6,0 29.5,8.7 29.5,26c0,8.8 -3.2,15.3 -9.6,19.5c-6.2,4.1 -17.9,7.3 -34.7,9.4l-1.1,0.1l0,-54.8zm12.8,114.3c-4.9,0 -8.2,-0.6 -10,-1.8c-1.9,-1.3 -2.8,-3.9 -2.8,-7.5l0,-48l28.4,-4.6c9,0 16.4,3.3 22.1,9.7c5.8,6.3 8.7,14.2 8.7,23.5c0,8.7 -3,15.8 -8.9,20.9c-5.8,5.2 -14.9,7.8 -27.1,7.8l-10.4,0z" fill="#f2f0e9" id="svg_1">SMM</path>
  <path d="m222.9,159.9l0,-1.1c-4.9,-0.7 -8.2,-1.6 -10.3,-2.9c-2.2,-1.5 -3.3,-4.1 -3.3,-7.6l0,-95.4c0,-3.5 1.1,-6.1 3.3,-7.5c2,-1.4 5.4,-2.3 10.3,-3l0,-1.1c-13,0.6 -26.2,0.6 -39.2,0l0,1.1c4.9,0.7 8.3,1.6 10.3,3c2.2,1.4 3.4,3.9 3.4,7.5l0,95.4c0,3.5 -1.1,6.1 -3.4,7.6c-2.1,1.3 -5.4,2.2 -10.3,2.9l0,1.1c6.5,-0.3 13.1,-0.4 19.6,-0.4c6.6,0 13.1,0.1 19.6,0.4z" fill="#F2F0E9" id="svg_2" transform="matrix(1 0 0 1 0 0)"/>
  <path d="m340.9,104.9c-10.5,0.7 -23.9,0.8 -39.7,0.3l0,1.9l1.7,0.3c6.4,0.7 10.2,1.9 11.8,3.8c1.6,2 2.4,6.2 2.4,12.8c0,13.3 -1.7,22.3 -5.3,27.5c-3.6,5.2 -9.7,7.8 -18.1,7.8c-14.5,0 -26.2,-6 -34.5,-17.8c-8.3,-11.7 -12.5,-27.5 -12.5,-46.7c0,-10 1.1,-18.8 3.2,-26.2c2.1,-7.5 5.2,-13.3 9,-17.2c7.2,-7.2 15.7,-10.8 25.4,-10.8c17.4,0 30.4,10.6 38.8,31.7l2.8,0c-2.5,-6.4 -5.4,-16.7 -8.7,-30.8c-0.3,0 -0.7,0 -1.4,0.1c-2.2,0.2 -2.6,0.2 -2.7,0.2c-3.7,0 -8.2,-0.6 -13.2,-1.7c-4.7,-1.2 -9.2,-1.8 -13.4,-1.8c-15.9,0 -28.9,6 -38.5,17.9c-9.6,12 -14.5,26.9 -14.5,44.2c0,17.3 5.1,32.3 15.3,44.1c10.1,11.7 23.8,17.7 40.8,17.7c6.2,0 13,-1.1 20.3,-3.3c7.5,-2.2 13.2,-3.4 17.1,-3.4c2.6,0 4.8,0.1 6.4,0.3l0,-1.9c-3.8,-2.5 -5.7,-9.6 -5.7,-21.5l0,-8.4c0,-1.3 0,-2.5 0.1,-3.6c0.1,-1.6 0.4,-3.6 0.9,-5.8l0.2,-0.8c0.1,-0.3 0.1,-0.5 0.2,-0.7c0.1,-0.2 0.2,-0.4 0.3,-0.6c0.1,-0.1 0.1,-0.3 0.2,-0.4c0.1,-0.2 0.2,-0.4 0.4,-0.6c0.2,-0.2 0.4,-0.4 0.5,-0.5c0.1,0 0.1,-0.1 0.2,-0.2l0.4,-0.4c1.1,-1.2 2.9,-2 5.1,-2.3l4.5,-0.8l0.2,-2.4z" fill="#F2F0E9" id="svg_3">SMM</path>
  <text fill="#f2f0e9" font-family="Serif" font-size="24" id="svg_16" stroke="#000000" stroke-width="0" text-anchor="middle" transform="matrix(7.30615 0 0 7.57304 -798.634 -133.752)" x="187.26" xml:space="preserve" y="39.02">SMM</text>
  <path d="m203.86,5.1c17.62,10.7 17.62,21.8 0,32.5c-17.62,-10.7 -16.78,-21.8 0,-32.5z" fill="#F2F0E9" id="svg_22"/>
 </g>
</svg>