<?xml version="1.0"?>
<svg width="482" height="291" xmlns="http://www.w3.org/2000/svg" xmlns:svg="http://www.w3.org/2000/svg">
 <mask height="275" id="mask0_220_99" maskUnits="userSpaceOnUse" width="451" x="31" y="16">
  <path clip-rule="evenodd" d="m481.06,34.18l-9.58,-7.52l-312.04,-7.66c-0.32,13.25 -11.33,23.72 -24.58,23.4c-13.25,-0.33 -23.73,-11.33 -23.4,-24.58l-64.7,-1.59l1.09,0.85l-10.58,7.49l10.2,8l-10.58,7.49l10.2,8l-10.58,7.49l10.2,8l-10.58,7.49l10.2,8l-10.58,7.49l10.2,8l-10.58,7.48l10.2,8l-10.58,7.49l10.2,8l-10.58,7.49l10.2,8l-10.58,7.49l10.2,8l-10.58,7.49l10.2,8l-10.58,7.49l10.2,8l-10.58,7.49l10.2,8l-10.58,7.49l10.2,7.99l-10.58,7.49l10.2,8l-10.58,7.49l10.2,8l-10.58,7.49l10.19,8l-10.57,7.49l9.91,7.78l63.88,1.57c0.32,-13.25 11.33,-23.73 24.58,-23.41c13.25,0.33 23.73,11.34 23.4,24.59l312.86,7.68l-1.04,-0.81l10.18,-7.21l0.02,-0.58l-9.82,-7.7l10.18,-7.21l0.02,-0.58l-9.82,-7.7l10.18,-7.21l0.02,-0.58l-9.82,-7.7l10.18,-7.2l0.02,-0.59l-9.82,-7.7l10.18,-7.2l0.02,-0.59l-9.82,-7.7l10.18,-7.2l0.02,-0.59l-9.82,-7.7l10.18,-7.2l0.02,-0.59l-9.82,-7.69l10.18,-7.21l0.02,-0.59l-9.82,-7.69l10.18,-7.21l0.02,-0.58l-9.82,-7.7l10.18,-7.21l0.02,-0.58l-9.82,-7.7l10.18,-7.21l0.02,-0.58l-9.81,-7.7l10.18,-7.2l0.01,-0.59l-9.81,-7.7l10.18,-7.2l0.01,-0.59l-9.81,-7.69l10.18,-7.21l0.01,-0.59l-9.81,-7.69l10.18,-7.21l0.01,-0.58l-9.81,-7.7l10.18,-7.21l0.01,-0.58l-9.81,-7.7l10.18,-7.21l0.01,-0.58z" fill="#F2F0E9" fill-rule="evenodd" id="svg_1"/>
 </mask>
 <mask height="264" id="mask1_220_99" maskUnits="userSpaceOnUse" width="444" x="0" y="0">
  <path clip-rule="evenodd" d="m443.89,7.28l-9.76,-7.28l-312.13,0c0,13.25 -10.75,24 -24,24c-13.25,0 -24,-10.75 -24,-24l-64.72,0l1.11,0.83l-10.39,7.74l10.39,7.75l-10.39,7.75l10.39,7.74l-10.39,7.75l10.39,7.75l-10.39,7.74l10.39,7.75l-10.39,7.75l10.39,7.74l-10.39,7.75l10.39,7.75l-10.39,7.74l10.39,7.75l-10.39,7.75l10.39,7.74l-10.39,7.75l10.39,7.75l-10.39,7.74l10.39,7.75l-10.39,7.75l10.39,7.74l-10.39,7.75l10.39,7.75l-10.39,7.74l10.39,7.75l-10.39,7.75l10.39,7.74l-10.39,7.75l10.39,7.75l-10.39,7.74l10.39,7.75l-10.39,7.75l10.11,7.53l63.89,0c0,-13.25 10.75,-24 24,-24c13.25,0 24,10.75 24,24l312.95,0l-1.06,-0.79l10,-7.45l0,-0.59l-10,-7.45l10,-7.45l0,-0.59l-10,-7.45l10,-7.46l0,-0.58l-10,-7.46l10,-7.45l0,-0.59l-10,-7.45l10,-7.45l0,-0.59l-10,-7.45l10,-7.46l0,-0.58l-10,-7.46l10,-7.45l0,-0.59l-10,-7.45l10,-7.45l0,-0.59l-10,-7.45l10,-7.46l0,-0.58l-10,-7.46l10,-7.45l0,-0.59l-10,-7.45l10,-7.45l0,-0.59l-10,-7.45l10,-7.46l0,-0.58l-10,-7.46l10,-7.45l0,-0.59l-10,-7.45l10,-7.45l0,-0.59l-10,-7.45l10,-7.46l0,-0.58l-10,-7.46l10,-7.45l0,-0.59l-10,-7.45l10,-7.45l0,-0.59z" fill="#F2F0E9" fill-rule="evenodd" id="svg_2"/>
 </mask>
 <g class="layer">
  <title>Layer 1</title>
  <path clip-rule="evenodd" d="m481.06,34.18l-9.58,-7.52l-312.04,-7.66c-0.32,13.25 -11.33,23.72 -24.58,23.4c-13.25,-0.33 -23.73,-11.33 -23.4,-24.58l-64.7,-1.59l1.09,0.85l-10.58,7.49l10.2,8l-10.58,7.49l10.2,8l-10.58,7.49l10.2,8l-10.58,7.49l10.2,8l-10.58,7.49l10.2,8l-10.58,7.48l10.2,8l-10.58,7.49l10.2,8l-10.58,7.49l10.2,8l-10.58,7.49l10.2,8l-10.58,7.49l10.2,8l-10.58,7.49l10.2,8l-10.58,7.49l10.2,8l-10.58,7.49l10.2,7.99l-10.58,7.49l10.2,8l-10.58,7.49l10.2,8l-10.58,7.49l10.19,8l-10.57,7.49l9.91,7.78l63.88,1.57c0.32,-13.25 11.33,-23.73 24.58,-23.41c13.25,0.33 23.73,11.34 23.4,24.59l312.86,7.68l-1.04,-0.81l10.18,-7.21l0.02,-0.58l-9.82,-7.7l10.18,-7.21l0.02,-0.58l-9.82,-7.7l10.18,-7.21l0.02,-0.58l-9.82,-7.7l10.18,-7.2l0.02,-0.59l-9.82,-7.7l10.18,-7.2l0.02,-0.59l-9.82,-7.7l10.18,-7.2l0.02,-0.59l-9.82,-7.7l10.18,-7.2l0.02,-0.59l-9.82,-7.69l10.18,-7.21l0.02,-0.59l-9.82,-7.69l10.18,-7.21l0.02,-0.58l-9.82,-7.7l10.18,-7.21l0.02,-0.58l-9.82,-7.7l10.18,-7.21l0.02,-0.58l-9.81,-7.7l10.18,-7.2l0.01,-0.59l-9.81,-7.7l10.18,-7.2l0.01,-0.59l-9.81,-7.69l10.18,-7.21l0.01,-0.59l-9.81,-7.69l10.18,-7.21l0.01,-0.58l-9.81,-7.7l10.18,-7.21l0.01,-0.58l-9.81,-7.7l10.18,-7.21l0.01,-0.58z" fill="#E64490" fill-rule="evenodd" id="svg_3"/>
  <g id="svg_4" mask="url(#mask0_220_99)">
   <rect height="241.4" id="svg_5" opacity="0.4" stroke="white" stroke-width="0.6" transform="rotate(1.40694 63.4967 27.942)" width="391.4" x="63.5" y="27.94"/>
   <path d="m135.21,28.4l-6.09,247.93" id="svg_6" opacity="0.4" stroke="white" stroke-linecap="round" stroke-width="0.6"/>
  </g>
  <path d="m101.54,218.28l-10.95,-0.3l0.09,-3.1c0.02,-1 0.29,-1.78 0.81,-2.32c0.51,-0.56 1.22,-0.82 2.11,-0.8c0.56,0.01 1.06,0.21 1.5,0.58c0.44,0.36 0.7,0.83 0.8,1.4l0.04,0c0.06,-0.43 0.23,-0.8 0.48,-1.11c0.26,-0.32 0.59,-0.57 0.98,-0.74c0.39,-0.18 0.81,-0.26 1.27,-0.25c0.94,0.03 1.68,0.34 2.21,0.93c0.53,0.59 0.78,1.38 0.75,2.38l-0.09,3.33zm-6.25,-1.49l0.05,-1.77c0.01,-0.58 -0.13,-1.04 -0.43,-1.38c-0.3,-0.35 -0.72,-0.53 -1.24,-0.54c-0.53,-0.02 -0.96,0.14 -1.28,0.46c-0.32,0.32 -0.48,0.77 -0.5,1.35l-0.05,1.78l3.45,0.1zm5.07,0.13l0.05,-1.86c0.02,-0.63 -0.13,-1.13 -0.46,-1.49c-0.33,-0.38 -0.78,-0.58 -1.36,-0.6c-0.6,-0.01 -1.09,0.16 -1.47,0.52c-0.39,0.35 -0.59,0.84 -0.61,1.47l-0.05,1.86l3.9,0.1zm1.43,-7.82l-1.23,-0.03l0.06,-2.23l-8.49,-0.23l-0.06,2.23l-1.23,-0.03l0.16,-5.85l1.23,0.03l-0.06,2.24l8.48,0.23l0.06,-2.24l1.23,0.04l-0.15,5.84zm0.47,-11.97c-0.03,1 -0.33,1.78 -0.9,2.35c-0.58,0.56 -1.36,0.83 -2.34,0.81l-4.95,-0.14c-0.98,-0.02 -1.74,-0.33 -2.28,-0.93c-0.55,-0.59 -0.8,-1.39 -0.78,-2.39c0.03,-0.98 0.33,-1.75 0.92,-2.32c0.58,-0.56 1.35,-0.83 2.32,-0.8l-0.04,1.35c-0.62,-0.02 -1.1,0.13 -1.44,0.45c-0.34,0.31 -0.53,0.76 -0.54,1.35c-0.02,0.59 0.13,1.06 0.45,1.41c0.33,0.34 0.8,0.52 1.42,0.53l4.96,0.14c0.62,0.02 1.1,-0.14 1.45,-0.46c0.35,-0.33 0.53,-0.79 0.55,-1.38c0.02,-0.59 -0.14,-1.05 -0.47,-1.38c-0.34,-0.34 -0.81,-0.51 -1.43,-0.53l-1.5,-0.04l-0.06,2.22l-1.23,-0.03l0.1,-3.57l2.73,0.07c0.97,0.03 1.73,0.34 2.28,0.93c0.55,0.6 0.8,1.38 0.78,2.36zm0.31,-17.25l-9.71,-0.26l-0.08,3l-1.23,-0.03l0.2,-7.35l1.22,0.03l-0.08,3l9.72,0.26l-0.04,1.35zm0.18,-6.56l-10.95,-0.29l0.1,-3.38c0.01,-0.65 0.16,-1.21 0.45,-1.7c0.27,-0.48 0.65,-0.85 1.12,-1.11c0.48,-0.25 1.03,-0.37 1.66,-0.36c0.74,0.02 1.37,0.23 1.89,0.62c0.52,0.4 0.88,0.91 1.07,1.55l4.84,-2.11l-0.04,1.49l-4.7,2.02l-0.05,1.81l4.65,0.13l-0.04,1.33zm-5.83,-1.49l0.06,-2.04c0.01,-0.56 -0.15,-1.02 -0.49,-1.36c-0.35,-0.35 -0.82,-0.54 -1.4,-0.55c-0.59,-0.02 -1.06,0.14 -1.42,0.47c-0.36,0.33 -0.54,0.78 -0.56,1.33l-0.05,2.04l3.86,0.11zm6.08,-7.68l-1.23,-0.03l0.06,-2.24l-8.49,-0.23l-0.06,2.24l-1.23,-0.04l0.16,-5.84l1.23,0.03l-0.06,2.23l8.49,0.23l0.06,-2.23l1.23,0.03l-0.16,5.85zm0.23,-8.8l-10.94,-0.29l0.09,-3.53c0.03,-1.02 0.35,-1.82 0.95,-2.4c0.6,-0.59 1.39,-0.88 2.37,-0.85c0.98,0.03 1.75,0.35 2.33,0.98c0.56,0.61 0.83,1.43 0.8,2.45l-0.06,2.17l4.5,0.12l-0.04,1.35zm-5.67,-1.5l0.06,-2.17c0.01,-0.59 -0.15,-1.07 -0.5,-1.43c-0.36,-0.37 -0.85,-0.56 -1.46,-0.58c-0.62,-0.01 -1.11,0.15 -1.48,0.5c-0.37,0.34 -0.57,0.81 -0.58,1.4l-0.06,2.17l4.02,0.11zm6.23,-18.92l-9.72,-0.26l-0.08,2.99l-1.23,-0.03l0.2,-7.35l1.23,0.04l-0.08,3l9.71,0.26l-0.03,1.35zm0.18,-6.74l-1.23,-0.04l0.06,-2.23l-8.49,-0.23l-0.06,2.23l-1.23,-0.03l0.16,-5.85l1.23,0.04l-0.06,2.23l8.49,0.23l0.06,-2.23l1.23,0.03l-0.16,5.85zm0.47,-12.03c-0.02,1 -0.33,1.78 -0.9,2.34c-0.58,0.57 -1.35,0.84 -2.33,0.81l-4.95,-0.13c-0.98,-0.03 -1.74,-0.34 -2.29,-0.94c-0.54,-0.59 -0.8,-1.39 -0.77,-2.39c0.02,-0.98 0.33,-1.75 0.91,-2.31c0.58,-0.57 1.35,-0.84 2.32,-0.81l-0.03,1.35c-0.62,-0.02 -1.1,0.13 -1.44,0.45c-0.35,0.31 -0.53,0.77 -0.55,1.36c-0.01,0.58 0.14,1.05 0.47,1.4c0.32,0.34 0.8,0.52 1.41,0.54l4.95,0.13c0.62,0.02 1.11,-0.13 1.46,-0.46c0.33,-0.33 0.51,-0.79 0.53,-1.38c0.01,-0.59 -0.14,-1.05 -0.46,-1.37c-0.33,-0.34 -0.81,-0.52 -1.43,-0.54l0.04,-1.35c0.97,0.03 1.73,0.34 2.29,0.93c0.54,0.6 0.8,1.39 0.77,2.37zm0.01,-5.76l-10.95,-0.3l0.04,-1.35l4.71,0.13l0.04,-1.62l-4.64,-2.55l0.04,-1.47l5.2,2.85l5.75,-2.71l-0.04,1.55l-5.13,2.41l-0.04,1.57l5.05,0.14l-0.03,1.35zm0.24,-9.11l-10.94,-0.3l0.17,-6.29l1.23,0.03l-0.14,4.96l3.39,0.09l0.12,-4.43l1.2,0.03l-0.12,4.44l3.9,0.1l0.13,-4.96l1.23,0.03l-0.17,6.3zm0.31,-11.32l-9.72,-0.26l-0.08,3l-1.23,-0.03l0.2,-7.35l1.23,0.03l-0.08,3l9.71,0.26l-0.03,1.35z" fill="white" id="svg_7"/>
  <path d="m185.19,249.85c-1,-0.03 -1.8,-0.33 -2.37,-0.9c-0.58,-0.59 -0.86,-1.36 -0.83,-2.33l1.35,0.03c-0.02,0.6 0.15,1.08 0.49,1.44c0.34,0.36 0.81,0.54 1.41,0.56c0.6,0.01 1.08,-0.15 1.44,-0.49c0.35,-0.34 0.54,-0.81 0.56,-1.41l0.01,-0.68c0.02,-0.6 -0.14,-1.08 -0.47,-1.44c-0.33,-0.35 -0.79,-0.54 -1.37,-0.55l-2.98,-0.08l0.13,-5.32l5.83,0.14l-0.03,1.23l-4.57,-0.11l-0.04,2.87l1.77,0.04c1.01,0.02 1.78,0.32 2.32,0.9c0.53,0.56 0.79,1.34 0.76,2.35l-0.01,0.68c-0.03,0.97 -0.35,1.73 -0.96,2.29c-0.6,0.54 -1.41,0.8 -2.44,0.78zm14.66,0.21l0.27,-10.95l2,0.05l1.27,4.77l1.58,-4.7l1.99,0.05l-0.27,10.94l-1.3,-0.03l0.12,-5.17c0.02,-0.49 0.03,-1.05 0.06,-1.68c0.03,-0.64 0.08,-1.28 0.12,-1.93c0.05,-0.65 0.1,-1.23 0.15,-1.75l-1.91,5.61l-1.17,-0.03l-1.56,-5.56c0.06,0.74 0.1,1.55 0.11,2.43c0.01,0.88 0,1.82 -0.03,2.81l-0.12,5.17l-1.31,-0.03zm12.41,0.45c-0.98,-0.02 -1.75,-0.33 -2.3,-0.91c-0.56,-0.58 -0.83,-1.41 -0.8,-2.47l0.12,-4.64c0.02,-1.06 0.33,-1.87 0.91,-2.43c0.58,-0.55 1.37,-0.82 2.34,-0.79c0.98,0.02 1.75,0.32 2.31,0.91c0.55,0.58 0.82,1.4 0.79,2.45l-0.11,4.66c-0.03,1.06 -0.33,1.87 -0.92,2.43c-0.58,0.55 -1.36,0.82 -2.34,0.79zm0.03,-1.21c0.59,0.01 1.04,-0.14 1.36,-0.46c0.33,-0.34 0.5,-0.81 0.52,-1.43l0.12,-4.95c0.01,-0.62 -0.14,-1.1 -0.45,-1.44c-0.3,-0.34 -0.75,-0.52 -1.33,-0.54c-0.58,-0.01 -1.04,0.15 -1.37,0.48c-0.33,0.32 -0.5,0.79 -0.51,1.41l-0.12,4.95c-0.02,0.62 0.13,1.1 0.44,1.45c0.31,0.34 0.76,0.51 1.34,0.53zm4.79,3.28l0.08,-3.25l0.67,0.01c0.18,-0.29 0.37,-0.74 0.56,-1.33c0.2,-0.61 0.31,-1.26 0.33,-1.96l0.27,-6.48l5.61,0.14l-0.24,9.79l1.05,0.03l-0.08,3.25l-1.2,-0.03l0.05,-2.09l-5.85,-0.15l-0.05,2.1l-1.2,-0.03zm2.16,-3.2l3.77,0.09l0.21,-8.59l-2.97,-0.07l-0.21,5.27c-0.03,0.77 -0.13,1.45 -0.3,2.04c-0.18,0.58 -0.34,1 -0.5,1.26zm9.37,1.38l1.18,-2.8l-3.02,-8.2l1.47,0.04l1.83,5.4c0.12,0.35 0.22,0.67 0.29,0.99c0.07,0.3 0.12,0.52 0.13,0.67c0.03,-0.15 0.08,-0.37 0.15,-0.67c0.08,-0.31 0.18,-0.63 0.3,-0.97l1.85,-5.31l1.47,0.04l-4.21,10.85l-1.44,-0.04zm6.43,0.24l0.03,-1.26l0.27,0c0.44,0.01 0.76,-0.17 0.96,-0.56c0.21,-0.39 0.33,-1.07 0.36,-2.03l0.3,-7.14l5.63,0.14l-0.26,10.95l-1.35,-0.03l0.24,-9.72l-2.96,-0.07l-0.25,5.9c-0.05,1.34 -0.29,2.32 -0.72,2.94c-0.41,0.61 -1.05,0.91 -1.91,0.88l-0.34,0zm10.19,0.17l0.27,-10.95l6.3,0.16l-0.03,1.23l-4.97,-0.12l-0.08,3.39l4.44,0.11l-0.03,1.2l-4.44,-0.11l-0.1,3.89l4.97,0.13l-0.03,1.23l-6.3,-0.16zm8.84,0.22l0.27,-10.95l1.3,0.03l-0.15,6.15c0,0.36 -0.02,0.75 -0.05,1.16c-0.03,0.4 -0.05,0.78 -0.08,1.15c-0.03,0.36 -0.05,0.66 -0.08,0.91l3.56,-9.29l1.8,0.05l-0.27,10.94l-1.31,-0.03l0.15,-6.15c0.01,-0.37 0.03,-0.75 0.05,-1.15c0.03,-0.41 0.06,-0.8 0.09,-1.15c0.04,-0.37 0.07,-0.68 0.09,-0.92l-3.57,9.29l-1.8,-0.04zm3.45,-11.99c-0.72,-0.02 -1.3,-0.24 -1.73,-0.65c-0.43,-0.41 -0.63,-0.94 -0.62,-1.59l1.07,0.03c-0.01,0.39 0.1,0.71 0.33,0.95c0.24,0.25 0.55,0.37 0.95,0.39c0.41,0 0.74,-0.11 0.99,-0.34c0.25,-0.23 0.38,-0.55 0.39,-0.94l1.07,0.03c-0.02,0.65 -0.25,1.17 -0.7,1.56c-0.45,0.39 -1.03,0.57 -1.75,0.56z" fill="white" id="svg_8"/>
  <path d="m295.72,239.98l-3.84,12.98l-1.15,-0.03l3.83,-12.98l1.16,0.03z" fill="#E64490" id="svg_9"/>
  <path d="m329.15,253.38c-1.01,-0.02 -1.8,-0.32 -2.38,-0.9c-0.57,-0.58 -0.85,-1.36 -0.83,-2.33l1.35,0.04c-0.01,0.6 0.15,1.08 0.49,1.43c0.35,0.36 0.82,0.55 1.42,0.56c0.6,0.02 1.07,-0.15 1.43,-0.49c0.36,-0.34 0.55,-0.81 0.56,-1.41l0.02,-0.67c0.02,-0.6 -0.14,-1.08 -0.47,-1.44c-0.34,-0.36 -0.79,-0.54 -1.37,-0.56l-2.99,-0.07l0.13,-5.32l5.84,0.14l-0.03,1.23l-4.58,-0.11l-0.04,2.86l1.77,0.04c1.01,0.03 1.79,0.33 2.32,0.9c0.54,0.56 0.79,1.35 0.77,2.36l-0.02,0.67c-0.02,0.97 -0.34,1.74 -0.95,2.29c-0.61,0.55 -1.42,0.81 -2.44,0.78zm14.97,0.22l0.27,-10.95l1.35,0.04l-0.11,4.68l3.51,0.08l0.11,-4.68l1.35,0.04l-0.27,10.94l-1.35,-0.03l0.13,-5.04l-3.51,-0.09l-0.13,5.04l-1.35,-0.03zm9.1,0.22l0.27,-10.94l6.3,0.15l-0.03,1.23l-4.97,-0.12l-0.08,3.39l4.44,0.11l-0.03,1.2l-4.44,-0.11l-0.1,3.9l4.97,0.12l-0.03,1.23l-6.3,-0.16zm7.82,2.3l0.08,-3.26l0.67,0.02c0.18,-0.3 0.36,-0.74 0.56,-1.34c0.19,-0.6 0.3,-1.26 0.33,-1.95l0.26,-6.48l5.61,0.14l-0.24,9.79l1.05,0.02l-0.08,3.26l-1.2,-0.03l0.05,-2.1l-5.84,-0.14l-0.05,2.1l-1.2,-0.03zm2.16,-3.21l3.76,0.1l0.22,-8.6l-2.97,-0.07l-0.21,5.28c-0.03,0.77 -0.13,1.44 -0.3,2.03c-0.18,0.59 -0.34,1.01 -0.5,1.26zm8,1.36l0.27,-10.95l6.3,0.15l-0.03,1.23l-4.96,-0.12l-0.09,3.39l4.44,0.11l-0.03,1.2l-4.44,-0.11l-0.09,3.9l4.96,0.12l-0.03,1.23l-6.3,-0.15zm7.79,0.26l0.03,-1.26l0.27,0.01c0.44,0.01 0.76,-0.18 0.96,-0.56c0.21,-0.4 0.33,-1.07 0.37,-2.03l0.29,-7.14l5.64,0.14l-0.27,10.95l-1.35,-0.04l0.24,-9.71l-2.95,-0.08l-0.25,5.91c-0.05,1.34 -0.29,2.32 -0.72,2.94c-0.42,0.61 -1.05,0.9 -1.91,0.88l-0.35,-0.01zm10.11,0.18l0.27,-10.95l1.34,0.03l-0.11,4.5l2.19,0.05c0.66,0.02 1.23,0.17 1.72,0.45c0.49,0.28 0.87,0.67 1.12,1.15c0.27,0.49 0.4,1.06 0.38,1.71c-0.01,0.64 -0.17,1.2 -0.46,1.68c-0.28,0.48 -0.67,0.84 -1.18,1.1c-0.5,0.26 -1.07,0.38 -1.74,0.36l-3.53,-0.08zm1.38,-1.2l2.11,0.05c0.59,0.01 1.07,-0.15 1.44,-0.5c0.38,-0.37 0.57,-0.84 0.59,-1.44c0.01,-0.61 -0.16,-1.09 -0.52,-1.46c-0.35,-0.38 -0.82,-0.57 -1.41,-0.59l-2.12,-0.05l-0.09,3.99z" fill="white" id="svg_10"/>
  <path d="m283.86,161.43l-0.48,19.32" id="svg_11" stroke="white" stroke-linecap="round" stroke-width="1.8"/>
  <path d="m273.04,170.83l20.71,0.51" id="svg_12" stroke="white" stroke-linecap="round" stroke-width="1.8"/>
  <path d="m303.76,141.58l10.72,0.26l-0.27,10.71" id="svg_13" stroke="white" stroke-linecap="round" stroke-width="1.8"/>
  <path d="m302.29,201.56l10.71,0.26l0.27,-10.71" id="svg_14" stroke="white" stroke-linecap="round" stroke-width="1.8"/>
  <path d="m263.73,200.61l-10.71,-0.26l0.26,-10.71" id="svg_15" stroke="white" stroke-linecap="round" stroke-width="1.8"/>
  <path d="m265.2,140.63l-10.71,-0.26l-0.26,10.71" id="svg_16" stroke="white" stroke-linecap="round" stroke-width="1.8"/>
  <path d="m249.45,65.76c-0.56,-0.59 -2.53,-9.04 -3.45,-13.19c-1.59,0.39 -5.2,-0.31 -6.8,-0.7c-0.89,-0.27 -3.57,-0.85 -7.16,-1.08c-6.02,-0.29 -11.45,3.13 -13.4,4.88c-1.66,1.46 -5.38,5.58 -7.08,10.42c-2.13,6.05 -2.05,10.18 -1.96,13.96c0.09,3.77 1.58,8.83 3.64,12.47c2.07,3.65 5.57,7.32 10.19,9.41c4.61,2.09 8.47,1.82 9.72,1.85c3.59,0.09 7.38,-0.89 11,-2.06c2.9,-0.94 6.34,-0.26 7.65,0.01l0.02,-0.9c-2.65,-1.68 -2.94,-8.69 -2.88,-11.38c0.07,-2.69 0.62,-6.09 2.08,-7.31c1.18,-0.98 3.62,-1.17 4.52,-1.14l0.03,-1.08c-3.32,0.35 -12.75,-0.02 -17.06,-0.24l-0.02,0.9c1.08,0.08 3.91,0.42 5.19,1.02c1.59,0.76 2.33,3.11 2.21,7.78c-0.1,4.31 -0.8,7.69 -2.65,9.8c-2.84,3.25 -10.61,3.4 -12.92,2.92c-3.93,-0.82 -7.31,-1.97 -10.98,-6.38c-2.36,-2.84 -3.1,-5.1 -4.56,-11.6c-1.16,-5.2 -0.92,-11.69 -0.35,-14.73c0.82,-4.47 2.61,-10.02 6.44,-13.67c4.78,-4.55 10.62,-4.22 13.65,-3.61c3.04,0.61 4.36,1 7.02,2.68c3.81,2.54 5.76,8.35 6.65,10.94l1.26,0.03z" fill="white" id="svg_17"/>
  <path clip-rule="evenodd" d="m176.6,72.77l0.1,0.81c4.61,0.54 7.55,2.09 10.31,4.65c2.74,2.56 4.06,5.72 3.97,9.52c-0.1,4.29 -1.97,7.66 -5.64,10.15c-3.68,2.49 -8,3.7 -14.44,3.54l-21.47,-0.53l0.01,-0.45c1.98,-0.13 3.43,-0.45 4.28,-1.04l0,0c0.98,-0.68 2.16,-1.82 2.19,-3.32l0.98,-39.69c0.04,-1.64 -1.09,-2.99 -2,-3.95c-0.86,-0.94 -2.3,-1.52 -4.23,-1.81l0.02,-0.44c1.66,0.13 3.56,0.23 5.7,0.28c1.34,0.03 3.55,0.06 6.63,0.08c3.09,0.02 4.83,0.04 5.24,0.05c7.45,0.18 11.67,1.63 14.24,4.25l0,0l0.01,0c2.19,2.17 3.24,4.66 3.17,7.48c-0.05,2.26 -0.8,4.18 -2.23,5.8c-1.44,1.62 -3.23,3.18 -6.84,4.62zm-14.73,-21.32l-0.4,0.01l-0.58,23.45l0.48,-0.05c7.19,-0.74 12.21,-1.95 14.97,-3.67c2.81,-1.72 4.24,-4.5 4.33,-8.23c0.09,-3.65 -0.88,-6.48 -2.99,-8.42c-2.1,-1.93 -5.25,-2.91 -9.37,-3.01c-2.87,-0.07 -5.02,-0.1 -6.44,-0.08zm8.36,49.15c5.19,0.13 9.11,-0.87 11.69,-3.06c2.59,-2.17 3.92,-5.13 4.01,-8.86c0.1,-3.96 -1.05,-7.35 -3.47,-10.14c-2.4,-2.83 -5.54,-4.29 -9.39,-4.38l-0.03,-0.01l-12.17,1.67l-0.5,20.55c-0.04,1.47 0.28,2.62 1.11,3.25l0,0l0.01,0.01c0.42,0.28 0.99,0.48 1.69,0.62c0.7,0.14 1.57,0.21 2.58,0.24l4.47,0.11z" fill="white" fill-rule="evenodd" id="svg_18"/>
  <path d="m190.78,102.33c0.25,0 0.5,-0.01 0.75,-0.01c-0.23,0 -0.46,0.01 -0.69,0.01c-0.02,0 -0.04,0 -0.06,0z" fill="white" id="svg_19"/>
  <path d="m203.27,100.52l0.01,0.01l0.01,0.01c0.88,0.58 2.35,1.01 4.36,1.33l-0.01,0.45c-5.59,-0.38 -11.19,-0.52 -16.79,-0.41l0.01,-0.45c2.02,-0.22 3.52,-0.58 4.42,-1.12l0.01,-0.01l0.01,0c1.01,-0.65 1.84,-1.76 1.88,-3.22l1,-40.78c0.04,-1.48 -0.74,-2.63 -1.73,-3.27c-0.86,-0.62 -2.34,-1.06 -4.36,-1.39l0.01,-0.45c5.59,0.39 11.18,0.52 16.78,0.42l-0.01,0.45c-2.04,0.22 -3.54,0.59 -4.43,1.17c-0.99,0.62 -1.81,1.72 -1.85,3.18l-1,40.78c-0.03,1.46 0.73,2.61 1.68,3.3z" fill="white" id="svg_20"/>
  <path d="m381.44,69.58c0.15,0.18 0.3,0.35 0.44,0.53c0.09,-0.22 0.19,-0.43 0.28,-0.63c0,-0.01 0.01,-0.02 0.01,-0.02" fill="white" id="svg_21"/>
  <path clip-rule="evenodd" d="m389.5,66.38l0.01,0.01l0.01,0.01c0.48,0.4 0.69,0.87 0.67,1.47c-0.01,0.58 -0.23,1.06 -0.7,1.46c-0.41,0.36 -1.03,0.57 -1.96,0.54c-0.21,0 -0.61,-0.06 -1.23,-0.18c-0.6,-0.11 -1.05,-0.19 -1.33,-0.2c-0.65,-0.01 -1.25,0.09 -1.71,0.42c-0.49,0.36 -0.71,0.89 -0.72,1.48c-0.02,0.63 0.06,1.53 0.22,2.68c0.15,1.11 0.21,2.12 0.19,3.02c-0.08,3.5 -1.43,6.75 -4.07,9.78c-1.35,1.5 -3.32,2.77 -5.93,3.79c-2.59,0.99 -5.58,1.59 -9.01,1.79l0,0c-3.72,0.25 -6.25,0.57 -7.54,0.99c-0.62,0.17 -1.16,0.44 -1.54,0.84c-0.41,0.41 -0.62,0.93 -0.63,1.51c-0.01,0.43 0.06,0.84 0.25,1.21c0.2,0.37 0.49,0.66 0.85,0.86l0.02,0.01l0.02,0.01c0.65,0.31 1.79,0.62 3.36,0.92l0,0l11.31,1.98c4.1,0.72 7.01,1.78 8.81,3.11c1.73,1.28 2.58,3.1 2.52,5.52c-0.1,4.07 -2.17,7.27 -6.36,9.63c-4.24,2.39 -9.07,3.52 -14.51,3.39c-4.18,-0.1 -7.52,-1.01 -10.06,-2.68l0,0c-2.44,-1.6 -3.63,-4.02 -3.55,-7.39c0.05,-1.88 0.51,-3.42 1.35,-4.65c0.88,-1.26 1.82,-1.77 2.81,-1.74c0.66,0.01 1.14,0.21 1.5,0.55c0.38,0.35 0.53,0.72 0.52,1.13c-0.02,0.64 -0.28,1.45 -0.88,2.44c-0.67,1.09 -1.01,2.38 -1.05,3.84c-0.06,2.47 0.76,4.43 2.51,5.77c1.72,1.31 4.25,1.96 7.49,2.04c4.06,0.1 7.7,-0.71 10.89,-2.46c1.65,-0.87 2.92,-1.98 3.79,-3.35c0.88,-1.37 1.33,-2.97 1.37,-4.76c0.05,-2.06 -0.45,-3.66 -1.75,-4.52c-1.12,-0.76 -2.94,-1.33 -5.39,-1.76l-14.34,-2.95c-1.7,-0.39 -2.89,-0.98 -3.64,-1.72c-0.73,-0.73 -1.1,-1.65 -1.07,-2.81c0.02,-0.87 0.24,-1.58 0.62,-2.18c0.38,-0.59 0.95,-1.09 1.75,-1.49l0,0l0,0c1.65,-0.85 4.22,-1.42 7.77,-1.67l1.72,-0.13l-1.41,-0.99c-4.58,-3.24 -6.73,-7.04 -6.62,-11.39c0.1,-3.95 1.69,-7.33 4.83,-10.18l0,0c3.16,-2.89 6.97,-4.28 11.47,-4.17c4.11,0.1 7.52,1.85 10.27,5.29l0.66,0.81l0.39,-0.96c1.36,-3.32 3.12,-4.71 5.18,-4.66c0.8,0.02 1.4,0.26 1.87,0.69zm-14.45,20.5l0,0c2.2,-3.19 3.34,-6.82 3.44,-10.88c0.07,-2.72 -0.46,-5.09 -1.61,-7.08l0,0c-1.23,-2.1 -3.19,-3.18 -5.77,-3.24c-3.43,-0.09 -6.23,1.6 -8.37,4.9c-2.11,3.24 -3.21,6.87 -3.31,10.87c-0.07,2.78 0.49,5.16 1.7,7.1l0,0.01c1.26,1.98 3.16,2.99 5.6,3.05c3.33,0.09 6.1,-1.55 8.32,-4.73z" fill="white" fill-rule="evenodd" id="svg_22"/>
  <path clip-rule="evenodd" d="m391.73,90.74c-0.52,3.32 -0.09,6.34 1.31,9.06c0.69,1.37 1.62,2.43 2.79,3.15c1.17,0.73 2.55,1.1 4.11,1.13c3.99,0.1 7.74,-2.64 11.27,-7.82l0,-0.01l0,0c0.16,-0.24 0.36,-0.36 0.65,-0.37l0.15,0.01c-0.02,0.11 -0.08,0.29 -0.23,0.52l-0.01,0.02l-0.01,0.01c-3.75,6.83 -8.65,10.05 -14.72,9.9c-3.29,-0.08 -5.9,-1.21 -7.87,-3.37c-1.95,-2.12 -2.93,-5.4 -2.82,-9.95c0.11,-4.22 1.2,-8.48 3.3,-12.78c2.07,-4.25 4.72,-7.69 7.94,-10.34l0,0c3.17,-2.65 6.27,-3.89 9.31,-3.81c2.16,0.05 3.82,0.72 5.04,1.97c1.24,1.25 1.84,2.8 1.79,4.69c-0.08,3.02 -1.8,6 -5.4,8.96c-3.59,2.95 -8.98,5.8 -16.21,8.55l-0.33,0.13l-0.06,0.35zm0.29,-2.07c0.69,-5.44 2.47,-10.45 5.34,-15.01c1.42,-2.29 2.85,-4.04 4.27,-5.21c1.43,-1.17 2.9,-1.79 4.39,-1.76c1.31,0.03 2.35,0.58 3.01,1.65c0.64,1.02 0.89,2.47 0.85,4.24c-0.06,2.48 -1.13,5.14 -3.1,7.97l0,0c-1.15,1.64 -2.96,3.23 -5.37,4.78l-0.01,0c-2.42,1.53 -5.28,2.86 -8.57,4l-0.94,0.33l0.13,-0.99z" fill="white" fill-rule="evenodd" id="svg_23"/>
  <path d="m431.11,56.29l-1.89,11.06l7.09,0.17c0.01,0 0.02,0 0.03,0l-0.18,0.91l0,0.01c-0.01,0 -0.01,0.01 -0.01,0.02c0,0 -0.01,0 -0.02,0l-7.07,-0.17l-5.56,32.2l0,0.01c-0.13,0.91 -0.13,1.7 0.12,2.27l0,0.01l0.01,0.02c0.34,0.68 1.03,0.94 1.78,0.96c0.7,0.02 1.45,-0.27 2.23,-0.76c0.78,-0.48 1.66,-1.21 2.62,-2.15c0.04,-0.04 0.07,-0.05 0.08,-0.06c0.02,-0.01 0.03,-0.01 0.03,-0.01c0,0 0.03,0 0.09,0.03c0,0.02 0.01,0.06 0,0.11c0,0.12 -0.06,0.31 -0.21,0.58c-1.17,1.83 -2.63,3.2 -4.36,4.12c-1.74,0.93 -3.33,1.34 -4.77,1.31c-1.14,-0.03 -1.82,-0.38 -2.21,-0.93c-0.4,-0.58 -0.58,-1.52 -0.4,-2.95l6.04,-34.87l-6.97,-0.18c-0.02,0 -0.03,0 -0.04,0l0.15,-0.91l0.01,0c0,-0.01 0,-0.02 0,-0.02c0.01,0 0.03,0 0.06,0l6.99,0.17l1.89,-11.06l4.47,0.11z" fill="white" id="svg_24"/>
  <path d="m354.55,65.68l0.01,0l0,0.01c0.62,0.56 0.9,1.21 0.88,1.96c-0.01,0.75 -0.31,1.45 -0.95,2.13c-0.61,0.62 -1.34,0.91 -2.25,0.89c-0.83,-0.02 -1.62,-0.42 -2.38,-1.35c-0.43,-0.51 -0.78,-0.91 -1.04,-1.19c-0.14,-0.13 -0.26,-0.25 -0.37,-0.34c-0.06,-0.04 -0.13,-0.09 -0.2,-0.13c-0.06,-0.03 -0.19,-0.09 -0.35,-0.1c-1.16,-0.03 -2.3,0.79 -3.39,2.07c-1.11,1.32 -2.31,3.26 -3.59,5.82c-2.53,5.03 -4.72,10.51 -6.59,16.44l0,0.01c-1.68,5.44 -2.69,9.58 -3,12.39l-4.63,-0.11l5.47,-32.66l0,-0.01c0.16,-0.91 0.16,-1.73 -0.11,-2.35c-0.12,-0.32 -0.33,-0.6 -0.63,-0.79c-0.3,-0.19 -0.64,-0.26 -0.98,-0.25c-1.69,-0.03 -3.43,0.95 -5.18,2.71c-0.2,0.18 -0.31,0.22 -0.34,0.23c-0.01,-0.01 -0.02,-0.01 -0.03,-0.02c-0.06,-0.07 -0.06,-0.11 -0.06,-0.11c0,-0.02 0,-0.09 0.08,-0.21c1.54,-2.09 3.21,-3.65 5.01,-4.71l0,0c1.86,-1.11 3.51,-1.6 4.96,-1.57c1.15,0.03 1.81,0.37 2.17,0.87c0.36,0.53 0.52,1.4 0.29,2.75l-4.13,20.35l1.18,0.34c3.09,-8.45 6.01,-14.6 8.74,-18.49l0,0c2.66,-3.82 5.51,-5.56 8.53,-5.48c1.4,0.03 2.32,0.37 2.88,0.9z" fill="white" id="svg_25"/>
  <path d="m311.24,92.77c0,0 0,0 0,0l0,0z" fill="white" id="svg_26"/>
  <path d="m287.53,52.15l-1.89,11.06l7.09,0.17c0.01,0 0.02,0 0.02,0l-0.18,0.9l0,0.01c0,0.01 0,0.02 0,0.03c-0.01,0 -0.01,0 -0.02,0l-7.07,-0.18l-5.56,32.21l0,0.01c-0.13,0.9 -0.13,1.7 0.11,2.27l0.01,0.01l0.01,0.02c0.34,0.68 1.03,0.94 1.78,0.96c0.7,0.02 1.45,-0.27 2.23,-0.76c0.78,-0.49 1.65,-1.21 2.61,-2.15c0.04,-0.04 0.07,-0.06 0.09,-0.06c0.01,-0.01 0.02,-0.01 0.02,-0.01c0,0 0,0 0.01,0c0,0 0.02,0 0.09,0.03c0,0.02 0.01,0.05 0,0.1c-0.01,0.12 -0.06,0.31 -0.21,0.59c-1.18,1.83 -2.63,3.2 -4.36,4.12c-1.75,0.92 -3.33,1.34 -4.78,1.31c-1.14,-0.03 -1.82,-0.38 -2.2,-0.93c-0.4,-0.58 -0.59,-1.52 -0.4,-2.95l6.04,-34.88l-6.98,-0.17c-0.01,0 -0.02,0 -0.04,0l0.16,-0.91l0,0c0,-0.01 0.01,-0.02 0.01,-0.02c0.01,-0.01 0.03,-0.01 0.06,-0.01l6.99,0.18l1.89,-11.06l4.47,0.11z" fill="white" id="svg_27"/>
  <path clip-rule="evenodd" d="m323.12,97.57l0,0l0.01,0.01c0.01,0.01 0.02,0.02 0.02,0.02c0,0 0,0.01 0,0.04c-0.01,0.1 -0.07,0.29 -0.26,0.59l0,0c-1.18,1.84 -2.63,3.21 -4.34,4.14c-1.75,0.93 -3.27,1.34 -4.57,1.31c-1.4,-0.03 -2.14,-0.47 -2.5,-1.15c-0.4,-0.89 -0.51,-1.79 -0.35,-2.71l1.85,-9.59l-1.17,-0.35c-1.87,4.62 -3.77,8.03 -5.71,10.28l0,0l-0.01,0c-1.81,2.16 -4.34,3.22 -7.67,3.14c-2.82,-0.07 -5.01,-1.05 -6.65,-2.92c-1.6,-1.91 -2.4,-4.91 -2.3,-9.13c0.11,-4.57 1.16,-8.99 3.15,-13.27c2.01,-4.31 4.88,-7.86 8.6,-10.65l0,0l0,0c3.7,-2.83 7.76,-4.18 12.21,-4.07c3.32,0.08 6.27,0.72 8.89,1.91l-6.35,32.06l0,0.02c-0.12,0.87 -0.08,1.66 0.26,2.26c0.37,0.66 1,0.96 1.75,1l0.01,0l0.01,0c0.68,0.02 1.43,-0.28 2.21,-0.76c0.79,-0.48 1.67,-1.19 2.64,-2.12c0.13,-0.09 0.19,-0.1 0.2,-0.1c0,0 0.01,0 0.01,0c0,0 0,0 0,0c0.01,0 0.02,0.01 0.06,0.04zm-22.34,3.98c2.16,0.05 4.22,-1.5 6.17,-4.23c2.02,-2.81 3.68,-5.91 4.99,-9.3l0,0c1.39,-3.6 2.4,-6.91 3.03,-9.94l2.41,-11.48l-0.08,-0.18c-0.8,-1.74 -2.66,-2.51 -5.18,-2.57c-2.94,-0.07 -5.59,0.87 -7.92,2.8c-2.34,1.91 -4.12,4.31 -5.36,7.22c-2.5,5.7 -3.82,11.09 -3.95,16.13c-0.07,3.12 0.41,5.81 1.49,8.03l0,0c1.08,2.17 2.52,3.47 4.4,3.52z" fill="white" fill-rule="evenodd" id="svg_28"/>
  <path clip-rule="evenodd" d="m443.89,7.28l-9.76,-7.28l-312.13,0c0,13.25 -10.75,24 -24,24c-13.25,0 -24,-10.75 -24,-24l-64.72,0l1.11,0.83l-10.39,7.74l10.39,7.75l-10.39,7.75l10.39,7.74l-10.39,7.75l10.39,7.75l-10.39,7.74l10.39,7.75l-10.39,7.75l10.39,7.74l-10.39,7.75l10.39,7.75l-10.39,7.74l10.39,7.75l-10.39,7.75l10.39,7.74l-10.39,7.75l10.39,7.75l-10.39,7.74l10.39,7.75l-10.39,7.75l10.39,7.74l-10.39,7.75l10.39,7.75l-10.39,7.74l10.39,7.75l-10.39,7.75l10.39,7.74l-10.39,7.75l10.39,7.75l-10.39,7.74l10.39,7.75l-10.39,7.75l10.11,7.53l63.89,0c0,-13.25 10.75,-24 24,-24c13.25,0 24,10.75 24,24l312.95,0l-1.06,-0.79l10,-7.45l0,-0.59l-10,-7.45l10,-7.45l0,-0.59l-10,-7.45l10,-7.46l0,-0.58l-10,-7.46l10,-7.45l0,-0.59l-10,-7.45l10,-7.45l0,-0.59l-10,-7.45l10,-7.46l0,-0.58l-10,-7.46l10,-7.45l0,-0.59l-10,-7.45l10,-7.45l0,-0.59l-10,-7.45l10,-7.46l0,-0.58l-10,-7.46l10,-7.45l0,-0.59l-10,-7.45l10,-7.45l0,-0.59l-10,-7.45l10,-7.46l0,-0.58l-10,-7.46l10,-7.45l0,-0.59l-10,-7.45l10,-7.45l0,-0.59l-10,-7.45l10,-7.46l0,-0.58l-10,-7.46l10,-7.45l0,-0.59l-10,-7.45l10,-7.45l0,-0.59z" fill="#F2F0E9" fill-rule="evenodd" id="svg_29"/>
  <g id="svg_30" mask="url(#mask1_220_99)" transform="matrix(1 0 0 1 0 0)">
   <rect height="241.4" id="svg_31" opacity="0.2" stroke="black" stroke-width="0.6" width="391.4" x="26.3" y="11.3"/>
   <path d="m98,10l0,248" id="svg_32" opacity="0.2" stroke="black" stroke-linecap="round" stroke-width="0.6"/>
  </g>
  <path d="m69,197.64l-10.95,-0.02l0.01,-3.11c0,-1 0.26,-1.78 0.76,-2.34c0.5,-0.57 1.19,-0.85 2.08,-0.85c0.56,0 1.07,0.18 1.52,0.55c0.45,0.35 0.73,0.81 0.83,1.38l0.05,0c0.05,-0.43 0.2,-0.81 0.45,-1.13c0.25,-0.33 0.57,-0.58 0.96,-0.76c0.38,-0.19 0.8,-0.28 1.26,-0.28c0.94,0 1.69,0.29 2.24,0.87c0.54,0.58 0.8,1.36 0.8,2.36l-0.01,3.33zm-6.28,-1.33l0.01,-1.77c0,-0.58 -0.16,-1.04 -0.47,-1.37c-0.31,-0.34 -0.72,-0.51 -1.25,-0.51c-0.53,0 -0.96,0.16 -1.27,0.49c-0.31,0.33 -0.46,0.78 -0.46,1.36l-0.01,1.79l3.45,0.01zm5.07,0.01l0.01,-1.86c0,-0.63 -0.17,-1.13 -0.5,-1.49c-0.33,-0.37 -0.79,-0.56 -1.37,-0.56c-0.6,0 -1.09,0.19 -1.46,0.56c-0.38,0.35 -0.57,0.85 -0.57,1.48l-0.01,1.86l3.9,0.01zm1.24,-7.85l-1.23,-0.01l0,-2.23l-8.49,-0.02l0,2.23l-1.23,0l0.01,-5.85l1.23,0l-0.01,2.24l8.49,0.02l0.01,-2.24l1.23,0.01l-0.01,5.85zm0.17,-11.98c0,1 -0.28,1.79 -0.84,2.37c-0.56,0.58 -1.33,0.86 -2.31,0.86l-4.95,-0.01c-0.98,0 -1.75,-0.3 -2.31,-0.88c-0.56,-0.58 -0.84,-1.37 -0.84,-2.37c0.01,-0.98 0.29,-1.76 0.86,-2.34c0.57,-0.58 1.33,-0.86 2.3,-0.86l0,1.35c-0.62,0 -1.1,0.16 -1.43,0.49c-0.34,0.32 -0.51,0.77 -0.51,1.36c0,0.59 0.16,1.06 0.49,1.4c0.33,0.33 0.8,0.5 1.42,0.5l4.97,0.01c0.62,0 1.1,-0.16 1.44,-0.49c0.34,-0.34 0.51,-0.81 0.51,-1.39c0.01,-0.59 -0.16,-1.05 -0.5,-1.37c-0.34,-0.33 -0.82,-0.5 -1.44,-0.5l-1.5,0l-0.01,2.22l-1.23,-0.01l0.01,-3.57l2.73,0.01c0.97,0 1.74,0.29 2.31,0.88c0.56,0.58 0.84,1.36 0.83,2.34zm-0.1,-17.25l-9.72,-0.03l-0.01,3l-1.23,0l0.02,-7.35l1.23,0l-0.01,3l9.72,0.02l0,1.36zm0.01,-6.57l-10.95,-0.03l0.01,-3.37c0,-0.65 0.14,-1.22 0.41,-1.71c0.26,-0.49 0.63,-0.87 1.1,-1.14c0.47,-0.27 1.02,-0.4 1.65,-0.4c0.74,0 1.37,0.2 1.9,0.58c0.53,0.38 0.9,0.88 1.11,1.51l4.79,-2.22l-0.01,1.49l-4.65,2.13l0,1.81l4.64,0.02l0,1.33zm-5.86,-1.35l0.01,-2.04c0,-0.56 -0.18,-1.01 -0.53,-1.35c-0.36,-0.34 -0.83,-0.51 -1.41,-0.51c-0.59,-0.01 -1.06,0.16 -1.41,0.5c-0.35,0.34 -0.52,0.79 -0.53,1.35l0,2.04l3.87,0.01zm5.88,-7.82l-1.23,-0.01l0.01,-2.23l-8.49,-0.02l-0.01,2.23l-1.23,0l0.02,-5.85l1.23,0l-0.01,2.24l8.49,0.02l0.01,-2.24l1.23,0.01l-0.02,5.85zm0.03,-8.8l-10.95,-0.03l0,-3.52c0.01,-1.02 0.3,-1.83 0.89,-2.43c0.59,-0.61 1.37,-0.91 2.35,-0.91c0.98,0 1.76,0.31 2.35,0.92c0.58,0.6 0.87,1.41 0.86,2.43l0,2.18l4.5,0.01l0,1.35zm-5.72,-1.37l0.01,-2.17c0,-0.59 -0.18,-1.06 -0.54,-1.41c-0.37,-0.36 -0.86,-0.54 -1.47,-0.55c-0.62,0 -1.11,0.18 -1.47,0.54c-0.36,0.35 -0.54,0.82 -0.54,1.41l-0.01,2.17l4.02,0.01zm5.76,-19.07l-9.72,-0.02l0,3l-1.23,0l0.02,-7.35l1.22,0l0,3l9.72,0.02l-0.01,1.35zm0.02,-6.74l-1.23,0l0.01,-2.24l-8.49,-0.02l-0.01,2.24l-1.23,-0.01l0.01,-5.85l1.23,0.01l0,2.23l8.49,0.02l0,-2.23l1.23,0l-0.01,5.85zm0.18,-12.04c0,1 -0.28,1.79 -0.85,2.37c-0.56,0.58 -1.33,0.87 -2.31,0.86l-4.95,-0.01c-0.98,0 -1.75,-0.29 -2.31,-0.87c-0.55,-0.59 -0.83,-1.38 -0.83,-2.38c0,-0.98 0.29,-1.76 0.86,-2.33c0.56,-0.58 1.33,-0.87 2.3,-0.87l-0.01,1.35c-0.62,0 -1.09,0.16 -1.42,0.49c-0.34,0.32 -0.51,0.78 -0.52,1.37c0,0.59 0.17,1.05 0.51,1.39c0.33,0.33 0.81,0.5 1.43,0.5l4.95,0.01c0.62,0.01 1.1,-0.16 1.44,-0.49c0.33,-0.34 0.49,-0.8 0.49,-1.39c0.01,-0.59 -0.16,-1.05 -0.49,-1.37c-0.34,-0.33 -0.82,-0.49 -1.44,-0.5l0.01,-1.35c0.97,0.01 1.74,0.3 2.31,0.88c0.55,0.58 0.83,1.36 0.83,2.34zm-0.14,-5.75l-10.95,-0.03l0.01,-1.35l4.71,0.01l0,-1.62l-4.7,-2.44l0,-1.47l5.27,2.73l5.68,-2.85l0,1.54l-5.06,2.54l-0.01,1.57l5.06,0.02l-0.01,1.35zm0.03,-9.12l-10.95,-0.02l0.01,-6.3l1.23,0l-0.01,4.96l3.39,0.01l0.01,-4.44l1.2,0.01l-0.01,4.44l3.9,0l0.01,-4.96l1.23,0l-0.01,6.3zm0.02,-11.32l-9.72,-0.02l0,3l-1.23,0l0.01,-7.35l1.23,0l0,3l9.72,0.02l-0.01,1.35z" fill="black" id="svg_33"/>
  <path d="m263.66,219.57l-3.52,13.07l-1.15,0l3.51,-13.07l1.16,0z" fill="#E64490" id="svg_35"/>
  <path d="m254.91,135.56l0,12.88" id="svg_37" stroke="black" stroke-linecap="round" stroke-width="1.2"/>
  <path d="m247.86,142l13.81,0" id="svg_38" stroke="black" stroke-linecap="round" stroke-width="1.2"/>
  <path d="m267.86,122l7.14,0l0,7.14" id="svg_39" stroke="black" stroke-linecap="round" stroke-width="1.2"/>
  <path d="m267.86,162l7.14,0l0,-7.14" id="svg_40" stroke="black" stroke-linecap="round" stroke-width="1.2"/>
  <path d="m242.14,162l-7.14,0l0,-7.14" id="svg_41" stroke="black" stroke-linecap="round" stroke-width="1.2"/>
  <path d="m242.14,122l-7.14,0l0,7.14" id="svg_42" stroke="black" stroke-linecap="round" stroke-width="1.2"/>
  <path d="m214.66,45.23c-0.55,-0.55 -2.66,-8.66 -3.64,-12.64c-1.52,0.41 -5.02,-0.18 -6.58,-0.52c-0.87,-0.23 -3.46,-0.73 -6.93,-0.87c-5.82,-0.14 -10.97,3.29 -12.82,5.02c-1.56,1.45 -5.06,5.51 -6.58,10.22c-1.9,5.89 -1.73,9.88 -1.56,13.52c0.17,3.63 1.73,8.48 3.81,11.95c2.08,3.46 5.55,6.93 10.05,8.83c4.5,1.91 8.21,1.56 9.43,1.56c3.46,0 7.1,-1.04 10.56,-2.25c2.77,-0.97 6.11,-0.41 7.38,-0.17l0,-0.87c-2.6,-1.56 -3.05,-8.31 -3.05,-10.91c0,-2.6 0.45,-5.89 1.84,-7.11c1.1,-0.97 3.46,-1.21 4.33,-1.21l0,-1.04c-3.19,0.42 -12.3,0.29 -16.46,0.18l0,0.86c1.04,0.06 3.78,0.31 5.02,0.87c1.56,0.69 2.33,2.94 2.33,7.45c0,4.16 -0.59,7.44 -2.33,9.52c-2.66,3.2 -10.16,3.53 -12.4,3.12c-3.81,-0.69 -7.1,-1.73 -10.74,-5.89c-2.35,-2.69 -3.11,-4.85 -4.67,-11.09c-1.25,-4.99 -1.17,-11.26 -0.69,-14.2c0.69,-4.33 2.28,-9.73 5.88,-13.34c4.51,-4.5 10.15,-4.33 13.1,-3.81c2.94,0.52 4.23,0.87 6.82,2.42c3.75,2.36 5.76,7.92 6.69,10.4l1.21,0z" fill="black" id="svg_43"/>
  <path clip-rule="evenodd" d="m144.54,53.72l0.12,0.78c4.46,0.41 7.34,1.83 10.06,4.24c2.7,2.4 4.05,5.42 4.05,9.09c0,4.14 -1.72,7.44 -5.2,9.92c-3.48,2.49 -7.63,3.76 -13.85,3.76l-20.72,0l0,-0.43c1.9,-0.17 3.3,-0.52 4.11,-1.11l0,0c0.92,-0.68 2.03,-1.8 2.03,-3.26l0,-38.31c0,-1.58 -1.12,-2.86 -2.02,-3.76c-0.86,-0.88 -2.26,-1.41 -4.12,-1.65l0,-0.42c1.61,0.09 3.45,0.13 5.52,0.13c1.28,0 3.41,-0.02 6.39,-0.08c2.98,-0.05 4.66,-0.07 5.05,-0.07c7.19,0 11.3,1.29 13.84,3.76l0.01,0l0,0c2.17,2.04 3.24,4.42 3.24,7.14c0,2.18 -0.67,4.05 -2.02,5.65c-1.35,1.6 -3.03,3.14 -6.49,4.62zm-14.71,-20.22l-0.39,0.01l0,22.65l0.46,-0.06c6.92,-0.89 11.74,-2.17 14.36,-3.9c2.66,-1.73 3.98,-4.44 3.98,-8.04c0,-3.53 -1.01,-6.24 -3.09,-8.06c-2.07,-1.81 -5.13,-2.68 -9.11,-2.68c-2.77,0 -4.84,0.03 -6.21,0.08zm9.23,47.22c5,0 8.77,-1.05 11.2,-3.24c2.45,-2.14 3.67,-5.04 3.67,-8.63c0,-3.82 -1.2,-7.07 -3.6,-9.7c-2.38,-2.68 -5.44,-4.01 -9.16,-4.01l-0.03,0l-11.7,1.9l0,19.83c0,1.42 0.33,2.52 1.15,3.11l0.01,0l0,0.01c0.41,0.26 0.97,0.44 1.65,0.55c0.68,0.12 1.51,0.18 2.5,0.18l4.31,0z" fill="black" fill-rule="evenodd" id="svg_44"/>
  <path d="m158.93,81.9c0.23,-0.01 0.47,-0.02 0.71,-0.03c-0.22,0.01 -0.44,0.02 -0.66,0.03c-0.01,0 -0.04,0 -0.05,0z" fill="black" id="svg_45"/>
  <path d="m170.93,79.86l0.01,0.01l0.01,0c0.86,0.54 2.3,0.93 4.24,1.19l0,0.43c-5.4,-0.23 -10.8,-0.23 -16.21,0l0,-0.43c1.95,-0.26 3.38,-0.65 4.24,-1.19l0.01,0l0.01,-0.01c0.95,-0.64 1.73,-1.74 1.73,-3.15l0,-39.36c0,-1.43 -0.77,-2.52 -1.74,-3.12c-0.85,-0.57 -2.29,-0.97 -4.25,-1.23l0,-0.44c5.41,0.24 10.81,0.24 16.21,0l0,0.44c-1.97,0.26 -3.41,0.66 -4.25,1.23c-0.94,0.63 -1.7,1.71 -1.7,3.12l0,39.36c0,1.41 0.76,2.5 1.69,3.15z" fill="black" id="svg_46"/>
  <path d="m342.09,45.79c0.15,0.16 0.29,0.33 0.44,0.5c0.08,-0.21 0.16,-0.42 0.25,-0.62c0,-0.01 0.01,-0.01 0.01,-0.02" fill="black" id="svg_47"/>
  <path d="m274.91,69.83c0,0 0,0 0,0l0,0z" fill="black" id="svg_52"/>
  <text fill="#000000" font-family="Serif" font-size="24" id="svg_55" stroke-width="0" text-anchor="middle" transform="matrix(2.61332 0 0 3.24824 1171.06 171.319)" x="-328.34" xml:space="preserve" y="-27.32">SMM</text>
  <text fill="#000000" font-family="Sans-serif" font-size="24" id="svg_56" stroke-width="0" text-anchor="middle" transform="matrix(1 0 0 1 0 0) matrix(0.757418 0 0 0.706627 -75.0862 20.3759)" x="371.77" xml:space="preserve" y="298.92">3 модуля</text>
  <text fill="#000000" font-family="Sans-serif" font-size="24" id="svg_57" stroke-width="0" text-anchor="middle" transform="matrix(0.757418 0 0 0.706627 -75.0862 20.3759)" x="515.02" xml:space="preserve" y="299.89">2 недели</text>
 </g>
</svg>